<svg xmlns="http://www.w3.org/2000/svg" xmlns:xlink="http://www.w3.org/1999/xlink" contentStyleType="text/css" data-diagram-type="ACTIVITY" height="522px" preserveAspectRatio="none" style="width:796px;height:522px;background:#FFFFFF;" version="1.1" viewBox="0 0 796 522" width="796px" zoomAndPan="magnify"><defs/><g><ellipse cx="393.5906" cy="20" fill="#222222" rx="10" ry="10" style="stroke:#222222;stroke-width:1;"/><rect fill="#F1F1F1" height="33.9688" rx="12.5" ry="12.5" style="stroke:#181818;stroke-width:0.5;" width="127.8184" x="329.6814" y="50"/><text fill="#000000" font-family="sans-serif" font-size="12" lengthAdjust="spacing" textLength="107.8184" x="339.6814" y="71.1387">returnValue = 0.0</text><polygon fill="#F1F1F1" points="320.7585,103.9688,466.4226,103.9688,478.4226,116.7734,466.4226,129.5781,320.7585,129.5781,308.7585,116.7734,320.7585,103.9688" style="stroke:#181818;stroke-width:0.5;"/><text fill="#000000" font-family="sans-serif" font-size="11" lengthAdjust="spacing" textLength="144.5146" x="320.7585" y="114.1792">priceCurrency2 == 0 AND</text><text fill="#000000" font-family="sans-serif" font-size="11" lengthAdjust="spacing" textLength="145.6641" x="320.7585" y="126.9839">button == Main.currency?</text><text fill="#000000" font-family="sans-serif" font-size="11" lengthAdjust="spacing" textLength="29.3638" x="279.3948" y="114.1792">TRUE</text><text fill="#000000" font-family="sans-serif" font-size="11" lengthAdjust="spacing" textLength="33.9131" x="478.4226" y="114.1792">FALSE</text><rect fill="#90EE90" height="33.9688" rx="12.5" ry="12.5" style="stroke:#181818;stroke-width:0.5;" width="213.1719" x="134.6743" y="139.5781"/><text fill="#000000" font-family="sans-serif" font-size="12" lengthAdjust="spacing" textLength="193.1719" x="144.6743" y="160.7168">Path 1: returnValue = price1 * x</text><polygon fill="#F1F1F1" points="502.6218,139.5781,589.22,139.5781,601.22,152.3828,589.22,165.1875,502.6218,165.1875,490.6218,152.3828,502.6218,139.5781" style="stroke:#181818;stroke-width:0.5;"/><text fill="#000000" font-family="sans-serif" font-size="11" lengthAdjust="spacing" textLength="86.5981" x="502.6218" y="149.7886">price1 == 0 OR</text><text fill="#000000" font-family="sans-serif" font-size="11" lengthAdjust="spacing" textLength="72.6387" x="502.6218" y="162.5933">price2 == 0?</text><text fill="#000000" font-family="sans-serif" font-size="11" lengthAdjust="spacing" textLength="29.3638" x="461.2581" y="149.7886">TRUE</text><text fill="#000000" font-family="sans-serif" font-size="11" lengthAdjust="spacing" textLength="33.9131" x="601.22" y="149.7886">FALSE</text><rect fill="#FFC0CB" height="33.9688" rx="12.5" ry="12.5" style="stroke:#181818;stroke-width:0.5;" width="125.8613" x="377.8462" y="175.1875"/><text fill="#000000" font-family="sans-serif" font-size="12" lengthAdjust="spacing" textLength="105.8613" x="387.8462" y="196.3262">Path 2: return "0"</text><ellipse cx="440.7769" cy="240.1563" fill="none" rx="11" ry="11" style="stroke:#222222;stroke-width:1;"/><ellipse cx="440.7769" cy="240.1563" fill="#222222" rx="6" ry="6" style="stroke:#222222;stroke-width:1;"/><rect fill="#ADD8E6" height="33.9688" rx="12.5" ry="12.5" style="stroke:#181818;stroke-width:0.5;" width="254.7148" x="523.7075" y="175.1875"/><text fill="#000000" font-family="sans-serif" font-size="12" lengthAdjust="spacing" textLength="234.7148" x="533.7075" y="196.3262">Path 3: returnValue = price1/price2 * x</text><polygon fill="#F1F1F1" points="393.5906,261.1563,405.5906,273.1563,393.5906,285.1563,381.5906,273.1563,393.5906,261.1563" style="stroke:#181818;stroke-width:0.5;"/><polygon fill="#F1F1F1" points="37.6255,305.1563,96.7183,305.1563,108.7183,317.1563,96.7183,329.1563,37.6255,329.1563,25.6255,317.1563,37.6255,305.1563" style="stroke:#181818;stroke-width:0.5;"/><text fill="#000000" font-family="sans-serif" font-size="11" lengthAdjust="spacing" textLength="20.6519" x="71.1719" y="339.3667">YES</text><text fill="#000000" font-family="sans-serif" font-size="11" lengthAdjust="spacing" textLength="59.0928" x="37.6255" y="320.9644">value &gt; 1?</text><rect fill="#F1F1F1" height="33.9688" rx="12.5" ry="12.5" style="stroke:#181818;stroke-width:0.5;" width="112.3438" x="11" y="361.9609"/><text fill="#000000" font-family="sans-serif" font-size="12" lengthAdjust="spacing" textLength="92.3438" x="21" y="383.0996">df1: 2 decimals</text><polygon fill="#F1F1F1" points="155.3438,305.1563,224.9316,305.1563,236.9316,317.1563,224.9316,329.1563,155.3438,329.1563,143.3438,317.1563,155.3438,305.1563" style="stroke:#181818;stroke-width:0.5;"/><text fill="#000000" font-family="sans-serif" font-size="11" lengthAdjust="spacing" textLength="20.6519" x="194.1377" y="339.3667">YES</text><text fill="#000000" font-family="sans-serif" font-size="11" lengthAdjust="spacing" textLength="69.5879" x="155.3438" y="320.9644">value &gt; 0.1?</text><rect fill="#F1F1F1" height="33.9688" rx="12.5" ry="12.5" style="stroke:#181818;stroke-width:0.5;" width="112.3438" x="133.9658" y="361.9609"/><text fill="#000000" font-family="sans-serif" font-size="12" lengthAdjust="spacing" textLength="92.3438" x="143.9658" y="383.0996">df2: 3 decimals</text><polygon fill="#F1F1F1" points="284.1882,305.1563,360.7747,305.1563,372.7747,317.1563,360.7747,329.1563,284.1882,329.1563,272.1882,317.1563,284.1882,305.1563" style="stroke:#181818;stroke-width:0.5;"/><text fill="#000000" font-family="sans-serif" font-size="11" lengthAdjust="spacing" textLength="20.6519" x="326.4814" y="339.3667">YES</text><text fill="#000000" font-family="sans-serif" font-size="11" lengthAdjust="spacing" textLength="76.5864" x="284.1882" y="320.9644">value &gt; 0.01?</text><rect fill="#F1F1F1" height="33.9688" rx="12.5" ry="12.5" style="stroke:#181818;stroke-width:0.5;" width="112.3438" x="266.3096" y="361.9609"/><text fill="#000000" font-family="sans-serif" font-size="12" lengthAdjust="spacing" textLength="92.3438" x="276.3096" y="383.0996">df3: 4 decimals</text><polygon fill="#F1F1F1" points="413.0327,305.1563,496.6177,305.1563,508.6177,317.1563,496.6177,329.1563,413.0327,329.1563,401.0327,317.1563,413.0327,305.1563" style="stroke:#181818;stroke-width:0.5;"/><text fill="#000000" font-family="sans-serif" font-size="11" lengthAdjust="spacing" textLength="20.6519" x="458.8252" y="339.3667">YES</text><text fill="#000000" font-family="sans-serif" font-size="11" lengthAdjust="spacing" textLength="83.585" x="413.0327" y="320.9644">value &gt; 0.001?</text><rect fill="#F1F1F1" height="33.9688" rx="12.5" ry="12.5" style="stroke:#181818;stroke-width:0.5;" width="112.3438" x="398.6533" y="361.9609"/><text fill="#000000" font-family="sans-serif" font-size="12" lengthAdjust="spacing" textLength="92.3438" x="408.6533" y="383.0996">df4: 5 decimals</text><polygon fill="#F1F1F1" points="542.9971,305.1563,633.5806,305.1563,645.5806,317.1563,633.5806,329.1563,542.9971,329.1563,530.9971,317.1563,542.9971,305.1563" style="stroke:#181818;stroke-width:0.5;"/><text fill="#000000" font-family="sans-serif" font-size="11" lengthAdjust="spacing" textLength="20.6519" x="592.2888" y="339.3667">YES</text><text fill="#000000" font-family="sans-serif" font-size="11" lengthAdjust="spacing" textLength="90.5835" x="542.9971" y="320.9644">value &gt; 0.0001?</text><text fill="#000000" font-family="sans-serif" font-size="11" lengthAdjust="spacing" textLength="16.8867" x="645.5806" y="314.562">NO</text><rect fill="#F1F1F1" height="33.9688" rx="12.5" ry="12.5" style="stroke:#181818;stroke-width:0.5;" width="112.3438" x="532.1169" y="361.9609"/><text fill="#000000" font-family="sans-serif" font-size="12" lengthAdjust="spacing" textLength="92.3438" x="542.1169" y="383.0996">df5: 6 decimals</text><rect fill="#F1F1F1" height="33.9688" rx="12.5" ry="12.5" style="stroke:#181818;stroke-width:0.5;" width="119.9785" x="665.5806" y="358.5586"/><text fill="#000000" font-family="sans-serif" font-size="12" lengthAdjust="spacing" textLength="99.9785" x="675.5806" y="379.6973">df6: 12 decimals</text><rect fill="#F1F1F1" height="33.9688" rx="12.5" ry="12.5" style="stroke:#181818;stroke-width:0.5;" width="160.9297" x="313.1257" y="435.9297"/><text fill="#000000" font-family="sans-serif" font-size="12" lengthAdjust="spacing" textLength="140.9297" x="323.1257" y="457.0684">Return formatted value</text><ellipse cx="393.5906" cy="500.8984" fill="none" rx="11" ry="11" style="stroke:#222222;stroke-width:1;"/><ellipse cx="393.5906" cy="500.8984" fill="#222222" rx="6" ry="6" style="stroke:#222222;stroke-width:1;"/><line style="stroke:#181818;stroke-width:1;" x1="393.5906" x2="393.5906" y1="30" y2="50"/><polygon fill="#181818" points="389.5906,40,393.5906,50,397.5906,40,393.5906,44" style="stroke:#181818;stroke-width:1;"/><line style="stroke:#181818;stroke-width:1;" x1="440.7769" x2="440.7769" y1="209.1563" y2="229.1563"/><polygon fill="#181818" points="436.7769,219.1563,440.7769,229.1563,444.7769,219.1563,440.7769,223.1563" style="stroke:#181818;stroke-width:1;"/><line style="stroke:#181818;stroke-width:1;" x1="490.6218" x2="440.7769" y1="152.3828" y2="152.3828"/><line style="stroke:#181818;stroke-width:1;" x1="440.7769" x2="440.7769" y1="152.3828" y2="175.1875"/><polygon fill="#181818" points="436.7769,165.1875,440.7769,175.1875,444.7769,165.1875,440.7769,169.1875" style="stroke:#181818;stroke-width:1;"/><line style="stroke:#181818;stroke-width:1;" x1="601.22" x2="651.0649" y1="152.3828" y2="152.3828"/><line style="stroke:#181818;stroke-width:1;" x1="651.0649" x2="651.0649" y1="152.3828" y2="175.1875"/><polygon fill="#181818" points="647.0649,165.1875,651.0649,175.1875,655.0649,165.1875,651.0649,169.1875" style="stroke:#181818;stroke-width:1;"/><line style="stroke:#181818;stroke-width:1;" x1="651.0649" x2="651.0649" y1="209.1563" y2="273.1563"/><line style="stroke:#181818;stroke-width:1;" x1="651.0649" x2="405.5906" y1="273.1563" y2="273.1563"/><polygon fill="#181818" points="415.5906,269.1563,405.5906,273.1563,415.5906,277.1563,411.5906,273.1563" style="stroke:#181818;stroke-width:1;"/><line style="stroke:#181818;stroke-width:1;" x1="308.7585" x2="241.2603" y1="116.7734" y2="116.7734"/><line style="stroke:#181818;stroke-width:1;" x1="241.2603" x2="241.2603" y1="116.7734" y2="139.5781"/><polygon fill="#181818" points="237.2603,129.5781,241.2603,139.5781,245.2603,129.5781,241.2603,133.5781" style="stroke:#181818;stroke-width:1;"/><line style="stroke:#181818;stroke-width:1;" x1="478.4226" x2="545.9209" y1="116.7734" y2="116.7734"/><line style="stroke:#181818;stroke-width:1;" x1="545.9209" x2="545.9209" y1="116.7734" y2="139.5781"/><polygon fill="#181818" points="541.9209,129.5781,545.9209,139.5781,549.9209,129.5781,545.9209,133.5781" style="stroke:#181818;stroke-width:1;"/><line style="stroke:#181818;stroke-width:1;" x1="241.2603" x2="241.2603" y1="173.5469" y2="273.1563"/><line style="stroke:#181818;stroke-width:1;" x1="241.2603" x2="381.5906" y1="273.1563" y2="273.1563"/><polygon fill="#181818" points="371.5906,269.1563,381.5906,273.1563,371.5906,277.1563,375.5906,273.1563" style="stroke:#181818;stroke-width:1;"/><line style="stroke:#181818;stroke-width:1;" x1="393.5906" x2="393.5906" y1="83.9688" y2="103.9688"/><polygon fill="#181818" points="389.5906,93.9688,393.5906,103.9688,397.5906,93.9688,393.5906,97.9688" style="stroke:#181818;stroke-width:1;"/><line style="stroke:#181818;stroke-width:1;" x1="67.1719" x2="67.1719" y1="329.1563" y2="361.9609"/><polygon fill="#181818" points="63.1719,351.9609,67.1719,361.9609,71.1719,351.9609,67.1719,355.9609" style="stroke:#181818;stroke-width:1;"/><line style="stroke:#181818;stroke-width:1;" x1="67.1719" x2="67.1719" y1="395.9297" y2="415.9297"/><polygon fill="#181818" points="63.1719,405.9297,67.1719,415.9297,71.1719,405.9297,67.1719,409.9297" style="stroke:#181818;stroke-width:1;"/><line style="stroke:#181818;stroke-width:1;" x1="190.1377" x2="190.1377" y1="329.1563" y2="361.9609"/><polygon fill="#181818" points="186.1377,351.9609,190.1377,361.9609,194.1377,351.9609,190.1377,355.9609" style="stroke:#181818;stroke-width:1;"/><line style="stroke:#181818;stroke-width:1;" x1="190.1377" x2="190.1377" y1="395.9297" y2="415.9297"/><polygon fill="#181818" points="186.1377,405.9297,190.1377,415.9297,194.1377,405.9297,190.1377,409.9297" style="stroke:#181818;stroke-width:1;"/><line style="stroke:#181818;stroke-width:1;" x1="322.4814" x2="322.4814" y1="329.1563" y2="361.9609"/><polygon fill="#181818" points="318.4814,351.9609,322.4814,361.9609,326.4814,351.9609,322.4814,355.9609" style="stroke:#181818;stroke-width:1;"/><line style="stroke:#181818;stroke-width:1;" x1="322.4814" x2="322.4814" y1="395.9297" y2="415.9297"/><polygon fill="#181818" points="318.4814,405.9297,322.4814,415.9297,326.4814,405.9297,322.4814,409.9297" style="stroke:#181818;stroke-width:1;"/><line style="stroke:#181818;stroke-width:1;" x1="454.8252" x2="454.8252" y1="329.1563" y2="361.9609"/><polygon fill="#181818" points="450.8252,351.9609,454.8252,361.9609,458.8252,351.9609,454.8252,355.9609" style="stroke:#181818;stroke-width:1;"/><line style="stroke:#181818;stroke-width:1;" x1="454.8252" x2="454.8252" y1="395.9297" y2="415.9297"/><polygon fill="#181818" points="450.8252,405.9297,454.8252,415.9297,458.8252,405.9297,454.8252,409.9297" style="stroke:#181818;stroke-width:1;"/><line style="stroke:#181818;stroke-width:1;" x1="588.2888" x2="588.2888" y1="329.1563" y2="361.9609"/><polygon fill="#181818" points="584.2888,351.9609,588.2888,361.9609,592.2888,351.9609,588.2888,355.9609" style="stroke:#181818;stroke-width:1;"/><line style="stroke:#181818;stroke-width:1;" x1="588.2888" x2="588.2888" y1="395.9297" y2="415.9297"/><polygon fill="#181818" points="584.2888,405.9297,588.2888,415.9297,592.2888,405.9297,588.2888,409.9297" style="stroke:#181818;stroke-width:1;"/><line style="stroke:#181818;stroke-width:1;" x1="108.7183" x2="143.3438" y1="317.1563" y2="317.1563"/><polygon fill="#181818" points="133.3438,313.1563,143.3438,317.1563,133.3438,321.1563,137.3438,317.1563" style="stroke:#181818;stroke-width:1;"/><line style="stroke:#181818;stroke-width:1;" x1="236.9316" x2="272.1882" y1="317.1563" y2="317.1563"/><polygon fill="#181818" points="262.1882,313.1563,272.1882,317.1563,262.1882,321.1563,266.1882,317.1563" style="stroke:#181818;stroke-width:1;"/><line style="stroke:#181818;stroke-width:1;" x1="372.7747" x2="401.0327" y1="317.1563" y2="317.1563"/><polygon fill="#181818" points="391.0327,313.1563,401.0327,317.1563,391.0327,321.1563,395.0327,317.1563" style="stroke:#181818;stroke-width:1;"/><line style="stroke:#181818;stroke-width:1;" x1="508.6177" x2="530.9971" y1="317.1563" y2="317.1563"/><polygon fill="#181818" points="520.9971,313.1563,530.9971,317.1563,520.9971,321.1563,524.9971,317.1563" style="stroke:#181818;stroke-width:1;"/><line style="stroke:#181818;stroke-width:1;" x1="393.5906" x2="393.5906" y1="285.1563" y2="290.1563"/><line style="stroke:#181818;stroke-width:1;" x1="393.5906" x2="67.1719" y1="290.1563" y2="290.1563"/><line style="stroke:#181818;stroke-width:1;" x1="67.1719" x2="67.1719" y1="290.1563" y2="305.1563"/><polygon fill="#181818" points="63.1719,295.1563,67.1719,305.1563,71.1719,295.1563,67.1719,299.1563" style="stroke:#181818;stroke-width:1;"/><line style="stroke:#181818;stroke-width:1;" x1="645.5806" x2="725.5698" y1="317.1563" y2="317.1563"/><line style="stroke:#181818;stroke-width:1;" x1="725.5698" x2="725.5698" y1="317.1563" y2="358.5586"/><polygon fill="#181818" points="721.5698,348.5586,725.5698,358.5586,729.5698,348.5586,725.5698,352.5586" style="stroke:#181818;stroke-width:1;"/><line style="stroke:#181818;stroke-width:1;" x1="725.5698" x2="725.5698" y1="392.5273" y2="415.9297"/><polygon fill="#181818" points="721.5698,405.9297,725.5698,415.9297,729.5698,405.9297,725.5698,409.9297" style="stroke:#181818;stroke-width:1;"/><line style="stroke:#181818;stroke-width:1;" x1="67.1719" x2="725.5698" y1="415.9297" y2="415.9297"/><line style="stroke:#181818;stroke-width:1;" x1="393.5906" x2="393.5906" y1="415.9297" y2="435.9297"/><polygon fill="#181818" points="389.5906,425.9297,393.5906,435.9297,397.5906,425.9297,393.5906,429.9297" style="stroke:#181818;stroke-width:1;"/><line style="stroke:#181818;stroke-width:1;" x1="393.5906" x2="393.5906" y1="469.8984" y2="489.8984"/><polygon fill="#181818" points="389.5906,479.8984,393.5906,489.8984,397.5906,479.8984,393.5906,483.8984" style="stroke:#181818;stroke-width:1;"/><!--SRC=[XP5FJy8m68Vl_HHly38yp6tyENH1WufU4CWG4XCkTNld6aT7kixejxTh1m5SyDAqVVlq-RrjgPXKX4fKbHHhbbS88_1SBoGy1MSdUOmFbPGeufy0Hhe4uzdZHhnNIXMYtdXXNBXnS-Ik2of30Svhj9fq2S3Lb7zawbaY2hfWAWEVmgdBA7ouXk-GO5uYE4_ZwTB0XmI-DS-ZZJ1hc-IFJEiMN7nQKR0NGSVhXAPQgcAd9sUMVSXxdSUYlVQCDutRHDNNY8Idn8xciRxCwLlm3y7U9ilQG9DKjnr0WZ7VihoqZHuZdji6wHPw5o6lZTBf-vUfLgnFOV0FrieDA0pFE71cywOwfE2VD6wVYqRsQz92RfbIc83nXAJ-eby0]--></g></svg>