<svg xmlns="http://www.w3.org/2000/svg" xmlns:xlink="http://www.w3.org/1999/xlink" contentStyleType="text/css" data-diagram-type="ACTIVITY" height="564px" preserveAspectRatio="none" style="width:399px;height:564px;background:#FFFFFF;" version="1.1" viewBox="0 0 399 564" width="399px" zoomAndPan="magnify"><defs/><g><ellipse cx="171.3418" cy="20" fill="#222222" rx="10" ry="10" style="stroke:#222222;stroke-width:1;"/><rect fill="#F1F1F1" height="47.9375" rx="12.5" ry="12.5" style="stroke:#181818;stroke-width:0.5;" width="89.5449" x="126.5693" y="50"/><text fill="#000000" font-family="sans-serif" font-size="12" lengthAdjust="spacing" textLength="69.5449" x="136.5693" y="71.1387">value = 0.0</text><text fill="#000000" font-family="sans-serif" font-size="12" lengthAdjust="spacing" textLength="68.9297" x="136.5693" y="85.1074">gains = 0.0</text><rect fill="#F1F1F1" height="47.9375" rx="12.5" ry="12.5" style="stroke:#181818;stroke-width:0.5;" width="141.9863" x="100.3486" y="161.9375"/><text fill="#000000" font-family="sans-serif" font-size="12" lengthAdjust="spacing" textLength="121.9863" x="110.3486" y="183.0762">value += coin.value</text><text fill="#000000" font-family="sans-serif" font-size="12" lengthAdjust="spacing" textLength="120.7559" x="110.3486" y="197.0449">gains += coin.gains</text><polygon fill="#F1F1F1" points="171.3418,117.9375,183.3418,129.9375,171.3418,141.9375,159.3418,129.9375,171.3418,117.9375" style="stroke:#181818;stroke-width:0.5;"/><polygon fill="#F1F1F1" points="138.6506,229.875,204.033,229.875,216.033,241.875,204.033,253.875,138.6506,253.875,126.6506,241.875,138.6506,229.875" style="stroke:#181818;stroke-width:0.5;"/><text fill="#000000" font-family="sans-serif" font-size="11" lengthAdjust="spacing" textLength="65.3823" x="138.6506" y="245.6831">More coins?</text><text fill="#000000" font-family="sans-serif" font-size="11" lengthAdjust="spacing" textLength="19.0083" x="216.033" y="239.2808">yes</text><polygon fill="#F1F1F1" points="137.187,295.2739,205.4966,295.2739,217.4966,307.2739,205.4966,319.2739,137.187,319.2739,125.187,307.2739,137.187,295.2739" style="stroke:#181818;stroke-width:0.5;"/><text fill="#000000" font-family="sans-serif" font-size="11" lengthAdjust="spacing" textLength="68.3096" x="137.187" y="311.082">value == 0?</text><text fill="#000000" font-family="sans-serif" font-size="11" lengthAdjust="spacing" textLength="20.6519" x="104.5352" y="304.6797">YES</text><text fill="#000000" font-family="sans-serif" font-size="11" lengthAdjust="spacing" textLength="16.8867" x="217.4966" y="304.6797">NO</text><rect fill="#F1F1F1" height="33.9688" rx="12.5" ry="12.5" style="stroke:#181818;stroke-width:0.5;" width="122.0293" x="11" y="329.2739"/><text fill="#000000" font-family="sans-serif" font-size="12" lengthAdjust="spacing" textLength="102.0293" x="21" y="350.4126">percent = 0.00%</text><rect fill="#F1F1F1" height="33.9688" rx="12.5" ry="12.5" style="stroke:#181818;stroke-width:0.5;" width="235.2793" x="153.0293" y="329.2739"/><text fill="#000000" font-family="sans-serif" font-size="12" lengthAdjust="spacing" textLength="215.2793" x="163.0293" y="350.4126">percent = gains/(value-gains) * 100</text><polygon fill="#F1F1F1" points="171.3418,369.2427,183.3418,381.2427,171.3418,393.2427,159.3418,381.2427,171.3418,369.2427" style="stroke:#181818;stroke-width:0.5;"/><polygon fill="#F1F1F1" points="137.469,413.2427,205.2146,413.2427,217.2146,425.2427,205.2146,437.2427,137.469,437.2427,125.469,425.2427,137.469,413.2427" style="stroke:#181818;stroke-width:0.5;"/><text fill="#000000" font-family="sans-serif" font-size="11" lengthAdjust="spacing" textLength="67.7456" x="137.469" y="429.0508">gains &gt;= 0?</text><text fill="#000000" font-family="sans-serif" font-size="11" lengthAdjust="spacing" textLength="20.6519" x="104.8171" y="422.6484">YES</text><text fill="#000000" font-family="sans-serif" font-size="11" lengthAdjust="spacing" textLength="16.8867" x="217.2146" y="422.6484">NO</text><rect fill="#90EE90" height="33.9688" rx="12.5" ry="12.5" style="stroke:#181818;stroke-width:0.5;" width="108.5176" x="56.9785" y="447.2427"/><text fill="#000000" font-family="sans-serif" font-size="12" lengthAdjust="spacing" textLength="88.5176" x="66.9785" y="468.3813">Format GREEN</text><rect fill="#FFC0CB" height="33.9688" rx="12.5" ry="12.5" style="stroke:#181818;stroke-width:0.5;" width="91.9004" x="185.4961" y="447.2427"/><text fill="#000000" font-family="sans-serif" font-size="12" lengthAdjust="spacing" textLength="71.9004" x="195.4961" y="468.3813">Format RED</text><polygon fill="#F1F1F1" points="171.3418,487.2114,183.3418,499.2114,171.3418,511.2114,159.3418,499.2114,171.3418,487.2114" style="stroke:#181818;stroke-width:0.5;"/><ellipse cx="171.3418" cy="542.2114" fill="none" rx="11" ry="11" style="stroke:#222222;stroke-width:1;"/><ellipse cx="171.3418" cy="542.2114" fill="#222222" rx="6" ry="6" style="stroke:#222222;stroke-width:1;"/><line style="stroke:#181818;stroke-width:1;" x1="171.3418" x2="171.3418" y1="30" y2="50"/><polygon fill="#181818" points="167.3418,40,171.3418,50,175.3418,40,171.3418,44" style="stroke:#181818;stroke-width:1;"/><line style="stroke:#181818;stroke-width:1;" x1="171.3418" x2="171.3418" y1="141.9375" y2="161.9375"/><polygon fill="#181818" points="167.3418,151.9375,171.3418,161.9375,175.3418,151.9375,171.3418,155.9375" style="stroke:#181818;stroke-width:1;"/><line style="stroke:#181818;stroke-width:1;" x1="216.033" x2="254.335" y1="241.875" y2="241.875"/><polygon fill="#181818" points="250.335,195.9063,254.335,185.9063,258.335,195.9063,254.335,191.9063" style="stroke:#181818;stroke-width:1;"/><line style="stroke:#181818;stroke-width:1;" x1="254.335" x2="254.335" y1="129.9375" y2="241.875"/><line style="stroke:#181818;stroke-width:1;" x1="254.335" x2="183.3418" y1="129.9375" y2="129.9375"/><polygon fill="#181818" points="193.3418,125.9375,183.3418,129.9375,193.3418,133.9375,189.3418,129.9375" style="stroke:#181818;stroke-width:1;"/><line style="stroke:#181818;stroke-width:1;" x1="171.3418" x2="171.3418" y1="209.875" y2="229.875"/><polygon fill="#181818" points="167.3418,219.875,171.3418,229.875,175.3418,219.875,171.3418,223.875" style="stroke:#181818;stroke-width:1;"/><line style="stroke:#181818;stroke-width:1;" x1="171.3418" x2="171.3418" y1="97.9375" y2="117.9375"/><polygon fill="#181818" points="167.3418,107.9375,171.3418,117.9375,175.3418,107.9375,171.3418,111.9375" style="stroke:#181818;stroke-width:1;"/><line style="stroke:#181818;stroke-width:1;" x1="125.187" x2="72.0146" y1="307.2739" y2="307.2739"/><line style="stroke:#181818;stroke-width:1;" x1="72.0146" x2="72.0146" y1="307.2739" y2="329.2739"/><polygon fill="#181818" points="68.0146,319.2739,72.0146,329.2739,76.0146,319.2739,72.0146,323.2739" style="stroke:#181818;stroke-width:1;"/><line style="stroke:#181818;stroke-width:1;" x1="217.4966" x2="270.6689" y1="307.2739" y2="307.2739"/><line style="stroke:#181818;stroke-width:1;" x1="270.6689" x2="270.6689" y1="307.2739" y2="329.2739"/><polygon fill="#181818" points="266.6689,319.2739,270.6689,329.2739,274.6689,319.2739,270.6689,323.2739" style="stroke:#181818;stroke-width:1;"/><line style="stroke:#181818;stroke-width:1;" x1="72.0146" x2="72.0146" y1="363.2427" y2="381.2427"/><line style="stroke:#181818;stroke-width:1;" x1="72.0146" x2="159.3418" y1="381.2427" y2="381.2427"/><polygon fill="#181818" points="149.3418,377.2427,159.3418,381.2427,149.3418,385.2427,153.3418,381.2427" style="stroke:#181818;stroke-width:1;"/><line style="stroke:#181818;stroke-width:1;" x1="270.6689" x2="270.6689" y1="363.2427" y2="381.2427"/><line style="stroke:#181818;stroke-width:1;" x1="270.6689" x2="183.3418" y1="381.2427" y2="381.2427"/><polygon fill="#181818" points="193.3418,377.2427,183.3418,381.2427,193.3418,385.2427,189.3418,381.2427" style="stroke:#181818;stroke-width:1;"/><line style="stroke:#181818;stroke-width:1;" x1="171.3418" x2="171.3418" y1="253.875" y2="295.2739"/><polygon fill="#181818" points="167.3418,285.2739,171.3418,295.2739,175.3418,285.2739,171.3418,289.2739" style="stroke:#181818;stroke-width:1;"/><text fill="#000000" font-family="sans-serif" font-size="11" lengthAdjust="spacing" textLength="13.7017" x="175.3418" y="275.1797">no</text><line style="stroke:#181818;stroke-width:1;" x1="125.469" x2="111.2373" y1="425.2427" y2="425.2427"/><line style="stroke:#181818;stroke-width:1;" x1="111.2373" x2="111.2373" y1="425.2427" y2="447.2427"/><polygon fill="#181818" points="107.2373,437.2427,111.2373,447.2427,115.2373,437.2427,111.2373,441.2427" style="stroke:#181818;stroke-width:1;"/><line style="stroke:#181818;stroke-width:1;" x1="217.2146" x2="231.4463" y1="425.2427" y2="425.2427"/><line style="stroke:#181818;stroke-width:1;" x1="231.4463" x2="231.4463" y1="425.2427" y2="447.2427"/><polygon fill="#181818" points="227.4463,437.2427,231.4463,447.2427,235.4463,437.2427,231.4463,441.2427" style="stroke:#181818;stroke-width:1;"/><line style="stroke:#181818;stroke-width:1;" x1="111.2373" x2="111.2373" y1="481.2114" y2="499.2114"/><line style="stroke:#181818;stroke-width:1;" x1="111.2373" x2="159.3418" y1="499.2114" y2="499.2114"/><polygon fill="#181818" points="149.3418,495.2114,159.3418,499.2114,149.3418,503.2114,153.3418,499.2114" style="stroke:#181818;stroke-width:1;"/><line style="stroke:#181818;stroke-width:1;" x1="231.4463" x2="231.4463" y1="481.2114" y2="499.2114"/><line style="stroke:#181818;stroke-width:1;" x1="231.4463" x2="183.3418" y1="499.2114" y2="499.2114"/><polygon fill="#181818" points="193.3418,495.2114,183.3418,499.2114,193.3418,503.2114,189.3418,499.2114" style="stroke:#181818;stroke-width:1;"/><line style="stroke:#181818;stroke-width:1;" x1="171.3418" x2="171.3418" y1="393.2427" y2="413.2427"/><polygon fill="#181818" points="167.3418,403.2427,171.3418,413.2427,175.3418,403.2427,171.3418,407.2427" style="stroke:#181818;stroke-width:1;"/><line style="stroke:#181818;stroke-width:1;" x1="171.3418" x2="171.3418" y1="511.2114" y2="531.2114"/><polygon fill="#181818" points="167.3418,521.2114,171.3418,531.2114,175.3418,521.2114,171.3418,525.2114" style="stroke:#181818;stroke-width:1;"/><!--SRC=[RO_12i8m44Jl-Og58hHAjLvRr8lLYrQf9y5BqRKDrar9ekBV6vDMK3nEPZ9lLkb2QXRVY_g6C85e61seB3Wf9nB693POQ0RGXWOJE0fEGwkwSFTeLTB-WKV5QmH_BIHQMyq2u0hy9wg0XLCIffwVmM_fXcW2ka82Vv_kWZUpGNb4qcvDr4iOrifKPfiVru97hYcq8e0-Z2Dp0TA9dnt8ZPt-0NahNbPwAH4fNWXvDUkNUPfctq1lo-dI-Naw_vGhBPeN]--></g></svg>