<svg xmlns="http://www.w3.org/2000/svg" xmlns:xlink="http://www.w3.org/1999/xlink" contentStyleType="text/css" data-diagram-type="ACTIVITY" height="296px" preserveAspectRatio="none" style="width:636px;height:296px;background:#FFFFFF;" version="1.1" viewBox="0 0 636 296" width="636px" zoomAndPan="magnify"><defs/><g><ellipse cx="318.2754" cy="20" fill="#222222" rx="10" ry="10" style="stroke:#222222;stroke-width:1;"/><polygon fill="#F1F1F1" points="276.3271,50,360.2236,50,372.2236,62,360.2236,74,276.3271,74,264.3271,62,276.3271,50" style="stroke:#181818;stroke-width:0.5;"/><text fill="#000000" font-family="sans-serif" font-size="11" lengthAdjust="spacing" textLength="83.8965" x="276.3271" y="65.8081">currentTheme?</text><rect fill="#FFFFE0" height="89.8438" rx="12.5" ry="12.5" style="stroke:#181818;stroke-width:0.5;" width="148.2617" x="11" y="109.6094"/><text fill="#000000" font-family="sans-serif" font-size="12" lengthAdjust="spacing" textLength="99.0117" x="21" y="130.748">Set LIGHT colors</text><text fill="#000000" font-family="sans-serif" font-size="12" lengthAdjust="spacing" textLength="128.2617" x="21" y="144.7168">background = WHITE</text><text fill="#000000" font-family="sans-serif" font-size="12" lengthAdjust="spacing" textLength="123.6621" x="21" y="158.6855">foreground = BLACK</text><text fill="#000000" font-family="sans-serif" font-size="12" lengthAdjust="spacing" textLength="106.5293" x="21" y="172.6543">positive = GREEN</text><text fill="#000000" font-family="sans-serif" font-size="12" lengthAdjust="spacing" textLength="95.3262" x="21" y="186.623">negative = RED</text><rect fill="#808080" height="89.8438" rx="12.5" ry="12.5" style="stroke:#181818;stroke-width:0.5;" width="221.3223" x="169.2617" y="109.6094"/><text fill="#000000" font-family="sans-serif" font-size="12" lengthAdjust="spacing" textLength="96.791" x="179.2617" y="130.748">Set DARK colors</text><text fill="#000000" font-family="sans-serif" font-size="12" lengthAdjust="spacing" textLength="183.0527" x="179.2617" y="144.7168">background = Color(15,15,15)</text><text fill="#000000" font-family="sans-serif" font-size="12" lengthAdjust="spacing" textLength="201.3223" x="179.2617" y="158.6855">foreground = Color(240,240,240)</text><text fill="#000000" font-family="sans-serif" font-size="12" lengthAdjust="spacing" textLength="166.5176" x="179.2617" y="172.6543">positive = Color(50,200,50)</text><text fill="#000000" font-family="sans-serif" font-size="12" lengthAdjust="spacing" textLength="171.9316" x="179.2617" y="186.623">negative = Color(200,50,50)</text><rect fill="#FFC0CB" height="89.8438" rx="12.5" ry="12.5" style="stroke:#181818;stroke-width:0.5;" width="224.9668" x="400.584" y="109.6094"/><text fill="#000000" font-family="sans-serif" font-size="12" lengthAdjust="spacing" textLength="115.043" x="410.584" y="130.748">Set CUSTOM colors</text><text fill="#000000" font-family="sans-serif" font-size="12" lengthAdjust="spacing" textLength="204.9668" x="410.584" y="144.7168">background = customBackground</text><text fill="#000000" font-family="sans-serif" font-size="12" lengthAdjust="spacing" textLength="197.7598" x="410.584" y="158.6855">foreground = customForeground</text><text fill="#000000" font-family="sans-serif" font-size="12" lengthAdjust="spacing" textLength="155.6309" x="410.584" y="172.6543">positive = customPositive</text><text fill="#000000" font-family="sans-serif" font-size="12" lengthAdjust="spacing" textLength="168.2109" x="410.584" y="186.623">negative = customNegative</text><polygon fill="#F1F1F1" points="318.2754,219.4531,318.2754,219.4531,330.2754,231.4531,318.2754,243.4531,318.2754,243.4531,306.2754,231.4531,318.2754,219.4531" style="stroke:#181818;stroke-width:0.5;"/><ellipse cx="318.2754" cy="274.4531" fill="none" rx="11" ry="11" style="stroke:#222222;stroke-width:1;"/><ellipse cx="318.2754" cy="274.4531" fill="#222222" rx="6" ry="6" style="stroke:#222222;stroke-width:1;"/><line style="stroke:#181818;stroke-width:1;" x1="264.3271" x2="85.1309" y1="62" y2="62"/><line style="stroke:#181818;stroke-width:1;" x1="85.1309" x2="85.1309" y1="62" y2="109.6094"/><polygon fill="#181818" points="81.1309,99.6094,85.1309,109.6094,89.1309,99.6094,85.1309,103.6094" style="stroke:#181818;stroke-width:1;"/><text fill="#000000" font-family="sans-serif" font-size="11" lengthAdjust="spacing" textLength="32.8872" x="85.1309" y="89.6128">LIGHT</text><line style="stroke:#181818;stroke-width:1;" x1="372.2236" x2="513.0674" y1="62" y2="62"/><line style="stroke:#181818;stroke-width:1;" x1="513.0674" x2="513.0674" y1="62" y2="109.6094"/><polygon fill="#181818" points="509.0674,99.6094,513.0674,109.6094,517.0674,99.6094,513.0674,103.6094" style="stroke:#181818;stroke-width:1;"/><text fill="#000000" font-family="sans-serif" font-size="11" lengthAdjust="spacing" textLength="47.5825" x="513.0674" y="89.6128">CUSTOM</text><line style="stroke:#181818;stroke-width:1;" x1="318.2754" x2="318.2754" y1="74" y2="85.8698"/><line style="stroke:#181818;stroke-width:1;" x1="318.2754" x2="279.9229" y1="85.8698" y2="85.8698"/><line style="stroke:#181818;stroke-width:1;" x1="279.9229" x2="279.9229" y1="85.8698" y2="109.6094"/><polygon fill="#181818" points="275.9229,99.6094,279.9229,109.6094,283.9229,99.6094,279.9229,103.6094" style="stroke:#181818;stroke-width:1;"/><text fill="#000000" font-family="sans-serif" font-size="11" lengthAdjust="spacing" textLength="30.8516" x="279.9229" y="90.6128">DARK</text><line style="stroke:#181818;stroke-width:1;" x1="85.1309" x2="85.1309" y1="199.4531" y2="231.4531"/><line style="stroke:#181818;stroke-width:1;" x1="85.1309" x2="306.2754" y1="231.4531" y2="231.4531"/><polygon fill="#181818" points="296.2754,227.4531,306.2754,231.4531,296.2754,235.4531,300.2754,231.4531" style="stroke:#181818;stroke-width:1;"/><line style="stroke:#181818;stroke-width:1;" x1="513.0674" x2="513.0674" y1="199.4531" y2="231.4531"/><line style="stroke:#181818;stroke-width:1;" x1="513.0674" x2="330.2754" y1="231.4531" y2="231.4531"/><polygon fill="#181818" points="340.2754,227.4531,330.2754,231.4531,340.2754,235.4531,336.2754,231.4531" style="stroke:#181818;stroke-width:1;"/><line style="stroke:#181818;stroke-width:1;" x1="279.9229" x2="279.9229" y1="199.4531" y2="204.4531"/><line style="stroke:#181818;stroke-width:1;" x1="279.9229" x2="318.2754" y1="204.4531" y2="204.4531"/><line style="stroke:#181818;stroke-width:1;" x1="318.2754" x2="318.2754" y1="204.4531" y2="219.4531"/><polygon fill="#181818" points="314.2754,209.4531,318.2754,219.4531,322.2754,209.4531,318.2754,213.4531" style="stroke:#181818;stroke-width:1;"/><line style="stroke:#181818;stroke-width:1;" x1="318.2754" x2="318.2754" y1="30" y2="50"/><polygon fill="#181818" points="314.2754,40,318.2754,50,322.2754,40,318.2754,44" style="stroke:#181818;stroke-width:1;"/><line style="stroke:#181818;stroke-width:1;" x1="318.2754" x2="318.2754" y1="243.4531" y2="263.4531"/><polygon fill="#181818" points="314.2754,253.4531,318.2754,263.4531,322.2754,253.4531,318.2754,257.4531" style="stroke:#181818;stroke-width:1;"/><!--SRC=[RP51QuCm74Vl-HI1NHGyk34lAsEqrjbIrnNh60KlQVgVXjga975bttwQP39B8RcyH_WzYD94QeJKXMbQOu-sKWBNHGqdUF4H9GgmbotJHU4ZZEyoLjLw1qqZBazRqDWOJ4KZf2hvdj1Z9KNB3_WPVowMHLBoBo5XOBDi6gzAVXQAQVOD7Kdp95cNd4D57CcJ-SJjpgVvoiocaloOlPxSdejxwDr7WJd-rR2r3uzXuAu_gh0wwamO1b4l_mMvjyRqygyk_jWMxs-cRyFuqVHPThkGjagBqsn0LubMlmve56Zbne5HdbLh1oO8-C5-PlUfMfn_0G00]--></g></svg>